HIERARCHY
ROOT Hips
{
	OFFSET 0.000000 0.000000 0.000000
	CHANNELS 6 Xposition Yposition Zposition Xrotation Yrotation Zrotation
	JOINT LeftUpLeg_virtual
	{
		OFFSET 0.000000 0.000000 0.000000
		CHANNELS 3 Xrotation Yrotation Zrotation
		JOINT LeftUpLeg
		{
			OFFSET 10.205400 -3.823500 0.155100
			CHANNELS 3 Xrotation Yrotation Zrotation
			JOINT LeftLeg
			{
				OFFSET 0.708757 -12.982077 0.567790
				CHANNELS 3 Xrotation Yrotation Zrotation
				JOINT LeftFoot
				{
					OFFSET -0.708756 -10.717838 -2.184338
					CHANNELS 3 Xrotation Yrotation Zrotation
					JOINT LeftToeBase
					{
						OFFSET 0.108149 -7.191104 7.560241
						CHANNELS 3 Xrotation Yrotation Zrotation
						JOINT LeftToe_End
						{
							OFFSET 0.070230 0.081724 4.490308
							CHANNELS 3 Xrotation Yrotation Zrotation
							End Site
							{
								OFFSET 0 0 0
							}
						}
					}
				}
			}
		}
	}
	JOINT RightUpLeg_virtual
	{
		OFFSET 0.000000 0.000000 0.000000
		CHANNELS 3 Xrotation Yrotation Zrotation
		JOINT RightUpLeg
		{
			OFFSET -10.205400 -3.823500 0.005500
			CHANNELS 3 Xrotation Yrotation Zrotation
			JOINT RightLeg
			{
				OFFSET -0.708756 -12.982134 0.610632
				CHANNELS 3 Xrotation Yrotation Zrotation
				JOINT RightFoot
				{
					OFFSET 0.708754 -10.717769 -1.945823
					CHANNELS 3 Xrotation Yrotation Zrotation
					JOINT RightToeBase
					{
						OFFSET -0.108140 -7.191069 7.372968
						CHANNELS 3 Xrotation Yrotation Zrotation
						JOINT RightToe_End
						{
							OFFSET -0.070227 0.081735 4.479403
							CHANNELS 3 Xrotation Yrotation Zrotation
							End Site
							{
								OFFSET 0 0 0
							}
						}
					}
				}
			}
		}
	}
	JOINT Spine_virtual
	{
		OFFSET 0.000000 0.000000 0.000000
		CHANNELS 3 Xrotation Yrotation Zrotation
		JOINT Spine
		{
			OFFSET 0.000000 6.876099 0.125700
			CHANNELS 3 Xrotation Yrotation Zrotation
			JOINT Spine1
			{
				OFFSET 0.000000 5.730043 0.104720
				CHANNELS 3 Xrotation Yrotation Zrotation
				JOINT Spine1_split
				{
					OFFSET 0.000000 5.730043 0.104720
					CHANNELS 3 Xrotation Yrotation Zrotation
					JOINT Spine2
					{
						OFFSET 0.000000 5.730043 0.104720
						CHANNELS 3 Xrotation Yrotation Zrotation
						JOINT Neck_virtual
						{
							OFFSET 0.000000 0.000000 0.000000
							CHANNELS 3 Xrotation Yrotation Zrotation
							JOINT Neck
							{
								OFFSET 0.000000 10.314075 0.188496
								CHANNELS 3 Xrotation Yrotation Zrotation
								JOINT Head
								{
									OFFSET 0.000000 7.643700 -2.377400
									CHANNELS 3 Xrotation Yrotation Zrotation
									JOINT HeadTop_End
									{
										OFFSET 0.000000 43.788605 -13.619600
										CHANNELS 3 Xrotation Yrotation Zrotation
										End Site
										{
											OFFSET 0 0 0
										}
									}
								}
							}
						}
						JOINT LeftShoulder_virtual
						{
							OFFSET 0.000000 0.000000 0.000000
							CHANNELS 3 Xrotation Yrotation Zrotation
							JOINT LeftShoulder
							{
								OFFSET 2.196100 4.412489 0.087492
								CHANNELS 3 Xrotation Yrotation Zrotation
								JOINT LeftShoulder_split
								{
									OFFSET 2.196100 4.412489 0.087492
									CHANNELS 3 Xrotation Yrotation Zrotation
									JOINT LeftArm
									{
										OFFSET 8.771219 -2.981674 -0.026999
										CHANNELS 3 Xrotation Yrotation Zrotation
										JOINT LeftForeArm
										{
											OFFSET 8.512804 0.000000 -0.000000
											CHANNELS 3 Xrotation Yrotation Zrotation
											JOINT LeftHand
											{
												OFFSET 18.484802 0.000000 -0.000000
												CHANNELS 3 Xrotation Yrotation Zrotation
												End Site
												{
													OFFSET 0 0 0
												}
											}
										}
									}
								}
							}
						}
						JOINT RightShoulder_virtual
						{
							OFFSET 0.000000 0.000000 0.000000
							CHANNELS 3 Xrotation Yrotation Zrotation
							JOINT RightShoulder
							{
								OFFSET -2.196100 4.412496 0.070690
								CHANNELS 3 Xrotation Yrotation Zrotation
								JOINT RightShoulder_split
								{
									OFFSET -2.196100 4.412496 0.070690
									CHANNELS 3 Xrotation Yrotation Zrotation
									JOINT RightArm
									{
										OFFSET -8.771282 -2.981682 -0.094208
										CHANNELS 3 Xrotation Yrotation Zrotation
										JOINT RightForeArm
										{
											OFFSET -8.494598 0.000000 0.000000
											CHANNELS 3 Xrotation Yrotation Zrotation
											JOINT RightHand
											{
												OFFSET -18.483803 0.000000 0.000001
												CHANNELS 3 Xrotation Yrotation Zrotation
												End Site
												{
													OFFSET 0 0 0
												}
											}
										}
									}
								}
							}
						}
					}
				}
			}
		}
	}
}
MOTION
Frames: 4
Frame Time: 0.03333333
5.115532 29.887648 -9.093390 0.000000 0.000000 0.000000 15.120301 19.921232 -0.813063 -5.692087 23.886773 23.309832 41.963770 -10.809659 -3.450856 -16.939819 -4.997750 -12.865542 5.501496 -5.136627 5.779644 0.000000 0.000000 0.000000 11.915694 16.290223 0.053764 -50.071820 8.226303 -3.316633 57.334131 2.463937 -0.328213 -11.326732 -6.726521 35.318369 13.654535 0.524014 -15.461255 0.000000 0.000000 0.000000 17.179070 22.274944 -1.277471 -12.926298 -6.526586 -1.865975 3.686134 -6.755417 3.529077 0.076265 -0.405006 0.040825 0.000000 0.000000 0.000000 1.726525 -3.860136 4.024883 23.564677 10.244079 4.616171 15.384204 42.368903 -14.176508 0.000000 0.000000 0.000000 3.615024 -4.737886 3.568644 4.934858 -10.089999 -6.036580 8.677084 -7.673326 5.286776 -34.644905 3.243545 -15.138839 -179.850342 -67.442408 177.570152 0.000000 0.000000 0.000000 3.635544 -5.556378 3.472068 -0.005421 -7.543619 25.779188 3.019360 6.461385 -7.893824 -39.273472 -1.519909 17.555896 -162.600781 51.059762 178.678664 0.000000 0.000000 0.000000 
5.369044 30.465275 -9.822758 0.000000 0.000000 0.000000 16.582419 21.482815 -2.989869 -21.425482 15.707395 30.247045 59.013340 -9.166011 -2.906825 -1.271516 -5.755670 -8.161846 10.225654 -4.918484 -3.268250 0.000000 0.000000 0.000000 13.779453 18.131656 -1.645918 -43.823836 6.413044 -2.593830 51.466445 4.481016 -1.537928 -15.226855 -5.524303 32.512961 8.320495 3.121889 -15.419096 0.000000 0.000000 0.000000 17.674023 21.547029 -1.797236 -8.961872 -6.337729 -0.611362 3.007471 -6.915786 1.816349 0.073371 -0.126859 0.027486 0.000000 0.000000 0.000000 1.094053 -4.055963 2.504208 24.727937 10.167437 6.632912 9.946429 43.534434 -9.385025 0.000000 0.000000 0.000000 2.832539 -5.114350 2.365358 6.177425 -12.069873 2.144911 7.461936 -6.026207 3.747315 -45.687730 0.062940 -5.409427 -169.815045 -70.789747 -174.756742 0.000000 0.000000 0.000000 2.483375 -5.542784 2.285406 -1.495601 -6.361998 17.804789 2.311625 3.543490 -5.273401 -51.897966 4.500719 12.451795 -155.977956 56.516585 171.143408 0.000000 0.000000 0.000000 
5.476191 30.888756 -10.312243 0.000000 0.000000 0.000000 17.555314 21.665152 -4.131422 -35.044533 7.772462 32.585719 73.200736 -5.896048 -2.156110 12.064897 -4.253405 -3.537050 8.675660 -4.599008 -12.449414 0.000000 0.000000 0.000000 15.210041 20.279212 -2.963407 -35.894874 2.259521 -2.090318 46.780604 4.026691 -1.506373 -22.754092 -5.895038 25.538113 1.522460 5.698240 -15.156219 0.000000 0.000000 0.000000 17.976440 20.585704 -1.958540 -4.799676 -5.948118 0.295730 2.435847 -7.183564 -0.093775 0.027587 0.107216 0.059735 0.000000 0.000000 0.000000 0.760680 -4.332813 0.853142 26.018289 10.329766 7.915329 4.580612 44.914125 -5.187197 0.000000 0.000000 0.000000 2.165803 -5.703012 0.719212 7.457250 -12.155075 9.313268 6.450132 -4.531110 4.106591 -53.278163 -4.064559 4.388863 -154.554381 -76.649278 -161.708950 0.000000 0.000000 0.000000 1.478483 -5.639668 0.919263 -3.026094 -4.787752 8.528511 3.482785 1.205745 -2.901175 -60.072784 9.325625 7.653726 -142.587603 64.930367 156.189269 0.000000 0.000000 0.000000 
5.490061 31.242962 -10.695311 0.000000 0.000000 0.000000 17.708980 21.134379 -3.806133 -44.830537 4.193057 30.469733 81.019410 -2.076265 -1.414031 18.211024 -2.407142 -0.160146 1.506329 -3.089690 -18.908605 0.000000 0.000000 0.000000 15.138433 20.771119 -2.814960 -31.280292 -2.648229 -2.999835 45.653507 2.988931 -0.642965 -27.017549 -5.910266 19.081663 -0.470767 7.434710 -13.767076 0.000000 0.000000 0.000000 18.024499 19.159557 -1.648370 -1.274313 -5.540555 0.350868 1.990581 -7.427255 -1.661599 -0.036566 0.198107 0.027931 0.000000 0.000000 0.000000 0.685092 -4.513812 -0.499397 27.132827 10.620324 8.203610 -0.596203 46.165238 -1.855465 0.000000 0.000000 0.000000 1.635962 -6.261025 -0.947797 8.212646 -10.836499 13.613985 5.548574 -4.316232 5.028895 -56.458036 -6.329757 12.012109 -125.751856 -81.960508 -134.511136 0.000000 0.000000 0.000000 0.799954 -5.719304 -0.245490 -4.240625 -3.455467 -0.267560 6.087964 0.567527 -0.561205 -62.795325 11.524478 4.818421 -116.703003 71.801967 128.265215 0.000000 0.000000 0.000000 
